STARTFONT 2.1
FONT -FontForge-Henny Penny-Book-R-Normal--12-120-72-72-P-68-ISO10646-1
SIZE 12 72 72
FONTBOUNDINGBOX 17 22 -2 -8
COMMENT "Generated by fontforge, http://fontforge.sourceforge.net"
COMMENT "Copyright (c) 2012, Brownfox (gayaneh.b@gmail.com), with Reserved Font Name "Henny Penny""
STARTPROPERTIES 39
FOUNDRY "FontForge"
FAMILY_NAME "Henny Penny"
WEIGHT_NAME "Book"
SLANT "R"
SETWIDTH_NAME "Normal"
ADD_STYLE_NAME ""
PIXEL_SIZE 12
POINT_SIZE 120
RESOLUTION_X 72
RESOLUTION_Y 72
SPACING "P"
AVERAGE_WIDTH 68
CHARSET_REGISTRY "ISO10646"
CHARSET_ENCODING "1"
FONTNAME_REGISTRY ""
CHARSET_COLLECTIONS "ISO10646-1"
FONT_NAME "HennyPenny-Regular"
FACE_NAME "Henny Penny"
COPYRIGHT "Copyright (c) 2012, Brownfox (gayaneh.b@gmail.com), with Reserved Font Name "Henny Penny""
FONT_VERSION "1.001"
FONT_ASCENT 10
FONT_DESCENT 2
UNDERLINE_POSITION -1
UNDERLINE_THICKNESS 1
X_HEIGHT 7
CAP_HEIGHT 9
RAW_ASCENT 799
RAW_DESCENT 200
NORM_SPACE 3
RELATIVE_WEIGHT 40
RELATIVE_SETWIDTH 50
SUPERSCRIPT_X 0
SUPERSCRIPT_Y 4
SUPERSCRIPT_SIZE 7
SUBSCRIPT_X 0
SUBSCRIPT_Y 0
SUBSCRIPT_SIZE 7
AVG_LOWERCASE_WIDTH 61
AVG_UPPERCASE_WIDTH 85
ENDPROPERTIES
CHARS 233
STARTCHAR space
ENCODING 32
SWIDTH 270 0
DWIDTH 3 0
BBX 1 1 0 0
BITMAP
00
ENDCHAR
STARTCHAR exclam
ENCODING 33
SWIDTH 249 0
DWIDTH 3 0
BBX 2 11 1 0
BITMAP
C0
C0
C0
C0
C0
80
80
80
80
C0
C0
ENDCHAR
STARTCHAR quotedbl
ENCODING 34
SWIDTH 292 0
DWIDTH 4 0
BBX 2 4 1 6
BITMAP
C0
C0
C0
C0
ENDCHAR
STARTCHAR numbersign
ENCODING 35
SWIDTH 1030 0
DWIDTH 12 0
BBX 11 14 1 -4
BITMAP
0400
0400
0B00
0A00
FFE0
1400
1800
3F80
E800
5000
5000
A000
2000
4000
ENDCHAR
STARTCHAR dollar
ENCODING 36
SWIDTH 799 0
DWIDTH 10 0
BBX 7 13 1 -3
BITMAP
0A
1E
2A
3C
38
18
0C
96
66
64
BC
20
40
ENDCHAR
STARTCHAR percent
ENCODING 37
SWIDTH 789 0
DWIDTH 9 0
BBX 8 11 1 0
BITMAP
63
92
94
68
08
10
26
49
49
89
86
ENDCHAR
STARTCHAR ampersand
ENCODING 38
SWIDTH 773 0
DWIDTH 9 0
BBX 8 12 0 -1
BITMAP
30
48
50
50
62
66
EA
D2
DA
CD
7F
02
ENDCHAR
STARTCHAR quotesingle
ENCODING 39
SWIDTH 174 0
DWIDTH 2 0
BBX 1 4 1 5
BITMAP
80
80
80
80
ENDCHAR
STARTCHAR parenleft
ENCODING 40
SWIDTH 431 0
DWIDTH 5 0
BBX 5 17 0 -5
BITMAP
20
40
40
40
80
80
80
80
80
80
C0
40
40
20
20
10
08
ENDCHAR
STARTCHAR parenright
ENCODING 41
SWIDTH 443 0
DWIDTH 5 0
BBX 5 12 0 -3
BITMAP
40
20
10
18
08
08
08
18
10
10
20
C0
ENDCHAR
STARTCHAR asterisk
ENCODING 42
SWIDTH 490 0
DWIDTH 6 0
BBX 4 5 1 6
BITMAP
40
50
A0
60
90
ENDCHAR
STARTCHAR plus
ENCODING 43
SWIDTH 440 0
DWIDTH 5 0
BBX 4 7 1 1
BITMAP
20
20
20
F0
20
20
20
ENDCHAR
STARTCHAR comma
ENCODING 44
SWIDTH 251 0
DWIDTH 3 0
BBX 2 4 0 -2
BITMAP
C0
C0
40
80
ENDCHAR
STARTCHAR hyphen
ENCODING 45
SWIDTH 436 0
DWIDTH 5 0
BBX 4 1 1 2
BITMAP
F0
ENDCHAR
STARTCHAR period
ENCODING 46
SWIDTH 238 0
DWIDTH 3 0
BBX 2 2 1 0
BITMAP
C0
C0
ENDCHAR
STARTCHAR slash
ENCODING 47
SWIDTH 690 0
DWIDTH 8 0
BBX 8 11 0 0
BITMAP
01
02
02
04
08
10
10
20
40
40
80
ENDCHAR
STARTCHAR zero
ENCODING 48
SWIDTH 723 0
DWIDTH 9 0
BBX 8 9 0 1
BITMAP
3C
42
C1
81
81
C1
C1
63
3C
ENDCHAR
STARTCHAR one
ENCODING 49
SWIDTH 505 0
DWIDTH 6 0
BBX 6 11 0 -1
BITMAP
20
20
70
B0
10
10
10
10
18
3C
60
ENDCHAR
STARTCHAR two
ENCODING 50
SWIDTH 534 0
DWIDTH 6 0
BBX 6 11 0 -1
BITMAP
78
88
8C
88
08
10
20
40
E4
1C
08
ENDCHAR
STARTCHAR three
ENCODING 51
SWIDTH 511 0
DWIDTH 6 0
BBX 6 10 0 -1
BITMAP
78
48
90
20
18
04
84
84
4C
38
ENDCHAR
STARTCHAR four
ENCODING 52
SWIDTH 712 0
DWIDTH 9 0
BBX 9 12 0 -2
BITMAP
0800
0800
1800
2800
4800
8C00
6400
1F00
0600
0600
0E00
0180
ENDCHAR
STARTCHAR five
ENCODING 53
SWIDTH 757 0
DWIDTH 9 0
BBX 9 11 0 -1
BITMAP
0480
0B80
1100
1000
0C00
8200
8300
8200
8200
4600
3C00
ENDCHAR
STARTCHAR six
ENCODING 54
SWIDTH 598 0
DWIDTH 7 0
BBX 7 9 0 0
BITMAP
3C
42
FC
C6
C2
C2
C2
46
3C
ENDCHAR
STARTCHAR seven
ENCODING 55
SWIDTH 507 0
DWIDTH 6 0
BBX 6 10 0 0
BITMAP
04
FC
88
88
10
10
20
20
20
60
ENDCHAR
STARTCHAR eight
ENCODING 56
SWIDTH 476 0
DWIDTH 6 0
BBX 5 10 1 0
BITMAP
70
D0
D0
E0
70
98
88
88
88
F0
ENDCHAR
STARTCHAR nine
ENCODING 57
SWIDTH 601 0
DWIDTH 7 0
BBX 7 9 0 0
BITMAP
78
CC
86
86
C6
7E
04
0C
F8
ENDCHAR
STARTCHAR colon
ENCODING 58
SWIDTH 246 0
DWIDTH 3 0
BBX 2 6 1 0
BITMAP
C0
C0
00
00
C0
C0
ENDCHAR
STARTCHAR semicolon
ENCODING 59
SWIDTH 266 0
DWIDTH 3 0
BBX 2 7 1 -2
BITMAP
C0
C0
00
00
C0
40
80
ENDCHAR
STARTCHAR less
ENCODING 60
SWIDTH 522 0
DWIDTH 6 0
BBX 5 5 1 1
BITMAP
10
60
80
40
38
ENDCHAR
STARTCHAR equal
ENCODING 61
SWIDTH 655 0
DWIDTH 8 0
BBX 6 3 1 2
BITMAP
1C
E0
F8
ENDCHAR
STARTCHAR greater
ENCODING 62
SWIDTH 533 0
DWIDTH 6 0
BBX 5 6 1 1
BITMAP
80
40
20
18
30
C0
ENDCHAR
STARTCHAR question
ENCODING 63
SWIDTH 564 0
DWIDTH 7 0
BBX 7 11 0 -1
BITMAP
78
C4
86
C4
CC
18
20
40
20
00
20
ENDCHAR
STARTCHAR at
ENCODING 64
SWIDTH 898 0
DWIDTH 11 0
BBX 10 12 1 -4
BITMAP
1F00
2180
40C0
DF40
B240
A240
A240
B240
9D80
4600
2200
1C00
ENDCHAR
STARTCHAR A
ENCODING 65
SWIDTH 784 0
DWIDTH 9 0
BBX 10 10 0 -1
BITMAP
3800
0C00
1400
1400
2600
3E00
2700
E300
2100
07C0
ENDCHAR
STARTCHAR B
ENCODING 66
SWIDTH 685 0
DWIDTH 8 0
BBX 8 12 0 -2
BITMAP
BC
66
22
26
28
3E
23
21
21
33
3E
C0
ENDCHAR
STARTCHAR C
ENCODING 67
SWIDTH 742 0
DWIDTH 9 0
BBX 9 12 0 -1
BITMAP
0100
0100
3F00
6100
C100
C000
C000
C080
C080
E100
7100
1E00
ENDCHAR
STARTCHAR D
ENCODING 68
SWIDTH 726 0
DWIDTH 9 0
BBX 9 10 0 -2
BITMAP
7E00
6300
2180
2180
2180
2100
3300
3C00
6000
8000
ENDCHAR
STARTCHAR E
ENCODING 69
SWIDTH 557 0
DWIDTH 7 0
BBX 6 11 1 -1
BITMAP
18
E8
40
40
50
70
50
50
44
64
FC
ENDCHAR
STARTCHAR F
ENCODING 70
SWIDTH 533 0
DWIDTH 6 0
BBX 6 11 0 0
BITMAP
0C
F4
64
64
38
30
30
30
20
20
F0
ENDCHAR
STARTCHAR G
ENCODING 71
SWIDTH 750 0
DWIDTH 9 0
BBX 9 9 0 0
BITMAP
0080
3D00
6300
C100
C280
CF00
C300
6300
3C00
ENDCHAR
STARTCHAR H
ENCODING 72
SWIDTH 743 0
DWIDTH 9 0
BBX 9 13 0 -2
BITMAP
8000
7880
2700
2100
2100
2100
2100
3F00
2100
2100
2100
2780
F000
ENDCHAR
STARTCHAR I
ENCODING 73
SWIDTH 438 0
DWIDTH 5 0
BBX 6 12 0 -2
BITMAP
FC
30
30
20
20
20
20
20
20
20
70
80
ENDCHAR
STARTCHAR J
ENCODING 74
SWIDTH 628 0
DWIDTH 8 0
BBX 8 14 0 -3
BITMAP
01
1E
0C
04
04
04
04
04
04
04
04
68
98
70
ENDCHAR
STARTCHAR K
ENCODING 75
SWIDTH 866 0
DWIDTH 10 0
BBX 11 11 0 0
BITMAP
1400
F380
2200
2400
2800
3800
2C40
2620
2320
21C0
7800
ENDCHAR
STARTCHAR L
ENCODING 76
SWIDTH 660 0
DWIDTH 8 0
BBX 8 8 0 1
BITMAP
F8
30
30
30
22
22
22
FF
ENDCHAR
STARTCHAR M
ENCODING 77
SWIDTH 1089 0
DWIDTH 13 0
BBX 14 10 0 -1
BITMAP
0038
3820
1420
16E0
12A0
1310
1110
1018
503C
E040
ENDCHAR
STARTCHAR N
ENCODING 78
SWIDTH 799 0
DWIDTH 10 0
BBX 10 11 0 -3
BITMAP
F3C0
3880
5D00
4F00
4700
4300
4100
4100
4000
2000
F000
ENDCHAR
STARTCHAR O
ENCODING 79
SWIDTH 747 0
DWIDTH 9 0
BBX 9 9 0 0
BITMAP
3C00
6300
C100
C180
8180
C180
C100
6300
3E00
ENDCHAR
STARTCHAR P
ENCODING 80
SWIDTH 623 0
DWIDTH 7 0
BBX 7 10 0 -1
BITMAP
FE
22
22
26
3C
20
20
20
20
F8
ENDCHAR
STARTCHAR Q
ENCODING 81
SWIDTH 804 0
DWIDTH 10 0
BBX 14 14 0 -5
BITMAP
1E00
6300
4180
8080
8080
8080
C680
4980
6980
3E80
0080
00C4
00E8
0078
ENDCHAR
STARTCHAR R
ENCODING 82
SWIDTH 869 0
DWIDTH 10 0
BBX 11 8 0 0
BITMAP
FC00
6600
2200
2600
3C00
2C20
2620
F3C0
ENDCHAR
STARTCHAR S
ENCODING 83
SWIDTH 517 0
DWIDTH 6 0
BBX 7 12 -1 -1
BITMAP
04
1E
24
24
30
18
08
84
86
46
66
9C
ENDCHAR
STARTCHAR T
ENCODING 84
SWIDTH 659 0
DWIDTH 8 0
BBX 8 12 0 -1
BITMAP
FF
89
89
88
48
08
08
08
08
0C
1F
20
ENDCHAR
STARTCHAR U
ENCODING 85
SWIDTH 690 0
DWIDTH 8 0
BBX 10 9 0 1
BITMAP
1C00
F000
37C0
3100
3100
3100
3100
1200
0E00
ENDCHAR
STARTCHAR V
ENCODING 86
SWIDTH 798 0
DWIDTH 10 0
BBX 11 10 0 0
BITMAP
0800
F020
3040
1380
1880
0900
0D00
0600
0600
0400
ENDCHAR
STARTCHAR W
ENCODING 87
SWIDTH 1120 0
DWIDTH 13 0
BBX 15 11 0 -1
BITMAP
0020
001E
1008
2010
E210
2220
3520
19A0
19C0
10C0
0080
ENDCHAR
STARTCHAR X
ENCODING 88
SWIDTH 868 0
DWIDTH 10 0
BBX 11 10 0 0
BITMAP
0800
FA00
19C0
0900
0E00
0600
0A00
1100
F100
13E0
ENDCHAR
STARTCHAR Y
ENCODING 89
SWIDTH 796 0
DWIDTH 10 0
BBX 11 13 0 -2
BITMAP
0800
F0E0
3080
1900
0E00
0400
0400
0400
0400
0400
0600
1E00
0300
ENDCHAR
STARTCHAR Z
ENCODING 90
SWIDTH 627 0
DWIDTH 8 0
BBX 7 11 1 -2
BITMAP
80
F8
B0
B0
20
20
64
44
44
FE
C0
ENDCHAR
STARTCHAR bracketleft
ENCODING 91
SWIDTH 344 0
DWIDTH 4 0
BBX 4 12 0 -2
BITMAP
60
50
40
40
C0
C0
80
80
80
80
C0
F0
ENDCHAR
STARTCHAR backslash
ENCODING 92
SWIDTH 347 0
DWIDTH 4 0
BBX 4 13 0 -2
BITMAP
80
80
80
40
40
40
40
20
20
20
10
10
10
ENDCHAR
STARTCHAR bracketright
ENCODING 93
SWIDTH 334 0
DWIDTH 4 0
BBX 3 11 1 -3
BITMAP
60
A0
20
20
20
20
20
20
20
20
C0
ENDCHAR
STARTCHAR asciicircum
ENCODING 94
SWIDTH 658 0
DWIDTH 8 0
BBX 6 3 1 6
BITMAP
20
78
8C
ENDCHAR
STARTCHAR underscore
ENCODING 95
SWIDTH 678 0
DWIDTH 8 0
BBX 7 1 1 -3
BITMAP
FE
ENDCHAR
STARTCHAR grave
ENCODING 96
SWIDTH 278 0
DWIDTH 3 0
BBX 2 2 1 9
BITMAP
80
40
ENDCHAR
STARTCHAR a
ENCODING 97
SWIDTH 527 0
DWIDTH 6 0
BBX 7 9 0 -1
BITMAP
70
90
58
18
78
88
88
FA
0C
ENDCHAR
STARTCHAR b
ENCODING 98
SWIDTH 582 0
DWIDTH 7 0
BBX 8 14 -1 0
BITMAP
20
E0
20
20
20
20
20
20
2E
32
23
32
3E
40
ENDCHAR
STARTCHAR c
ENCODING 99
SWIDTH 437 0
DWIDTH 5 0
BBX 5 7 0 1
BITMAP
70
98
80
88
88
C8
70
ENDCHAR
STARTCHAR d
ENCODING 100
SWIDTH 523 0
DWIDTH 6 0
BBX 6 11 0 1
BITMAP
08
18
08
08
08
08
78
C8
88
C8
7C
ENDCHAR
STARTCHAR e
ENCODING 101
SWIDTH 434 0
DWIDTH 5 0
BBX 5 7 0 0
BITMAP
70
48
88
F0
C8
C8
70
ENDCHAR
STARTCHAR f
ENCODING 102
SWIDTH 299 0
DWIDTH 4 0
BBX 6 16 -1 -2
BITMAP
1C
14
24
2C
20
F8
20
20
20
20
20
20
20
20
38
C0
ENDCHAR
STARTCHAR g
ENCODING 103
SWIDTH 567 0
DWIDTH 7 0
BBX 8 12 -1 -5
BITMAP
07
3B
64
64
38
20
20
3C
46
42
C6
78
ENDCHAR
STARTCHAR h
ENCODING 104
SWIDTH 566 0
DWIDTH 7 0
BBX 7 13 0 0
BITMAP
20
E0
20
20
40
40
40
40
58
6C
44
4C
EE
ENDCHAR
STARTCHAR i
ENCODING 105
SWIDTH 301 0
DWIDTH 4 0
BBX 3 9 0 1
BITMAP
40
00
E0
40
40
40
40
40
E0
ENDCHAR
STARTCHAR j
ENCODING 106
SWIDTH 367 0
DWIDTH 4 0
BBX 5 13 -1 -6
BITMAP
10
00
78
18
18
08
08
08
08
C8
88
90
E0
ENDCHAR
STARTCHAR k
ENCODING 107
SWIDTH 567 0
DWIDTH 7 0
BBX 7 13 -1 -1
BITMAP
20
E0
20
20
20
30
2E
28
32
2A
2E
20
F8
ENDCHAR
STARTCHAR l
ENCODING 108
SWIDTH 354 0
DWIDTH 4 0
BBX 4 11 0 0
BITMAP
20
60
E0
60
20
20
20
20
20
20
70
ENDCHAR
STARTCHAR m
ENCODING 109
SWIDTH 708 0
DWIDTH 9 0
BBX 8 6 0 1
BITMAP
40
F6
5A
5A
E6
01
ENDCHAR
STARTCHAR n
ENCODING 110
SWIDTH 584 0
DWIDTH 7 0
BBX 7 8 0 -1
BITMAP
40
5C
E4
64
44
24
6C
06
ENDCHAR
STARTCHAR o
ENCODING 111
SWIDTH 503 0
DWIDTH 6 0
BBX 5 6 0 1
BITMAP
70
C8
C8
C8
C8
70
ENDCHAR
STARTCHAR p
ENCODING 112
SWIDTH 509 0
DWIDTH 6 0
BBX 5 11 0 -4
BITMAP
40
F8
48
48
48
70
40
40
40
40
E0
ENDCHAR
STARTCHAR q
ENCODING 113
SWIDTH 505 0
DWIDTH 6 0
BBX 6 11 0 -5
BITMAP
7C
C8
C8
78
08
08
08
08
08
3C
04
ENDCHAR
STARTCHAR r
ENCODING 114
SWIDTH 414 0
DWIDTH 5 0
BBX 5 8 1 0
BITMAP
18
E8
58
40
40
40
40
F0
ENDCHAR
STARTCHAR s
ENCODING 115
SWIDTH 482 0
DWIDTH 6 0
BBX 6 9 -1 -1
BITMAP
1C
24
28
10
08
64
44
A4
18
ENDCHAR
STARTCHAR t
ENCODING 116
SWIDTH 434 0
DWIDTH 5 0
BBX 5 9 0 0
BITMAP
10
20
F8
20
60
40
48
68
38
ENDCHAR
STARTCHAR u
ENCODING 117
SWIDTH 744 0
DWIDTH 9 0
BBX 9 6 0 0
BITMAP
2600
E200
2200
2300
3580
1C00
ENDCHAR
STARTCHAR v
ENCODING 118
SWIDTH 600 0
DWIDTH 7 0
BBX 7 7 0 0
BITMAP
20
E6
24
34
18
18
08
ENDCHAR
STARTCHAR w
ENCODING 119
SWIDTH 745 0
DWIDTH 9 0
BBX 9 7 0 0
BITMAP
2180
E900
6D00
3600
3600
3200
2000
ENDCHAR
STARTCHAR x
ENCODING 120
SWIDTH 548 0
DWIDTH 7 0
BBX 7 8 0 0
BITMAP
10
E0
3E
38
10
28
6C
10
ENDCHAR
STARTCHAR y
ENCODING 121
SWIDTH 659 0
DWIDTH 8 0
BBX 8 12 0 -5
BITMAP
30
E7
62
62
22
26
1A
02
04
34
44
38
ENDCHAR
STARTCHAR z
ENCODING 122
SWIDTH 460 0
DWIDTH 6 0
BBX 6 6 0 0
BITMAP
F8
90
90
20
64
FC
ENDCHAR
STARTCHAR braceleft
ENCODING 123
SWIDTH 460 0
DWIDTH 6 0
BBX 5 15 0 -4
BITMAP
18
20
20
20
30
30
60
80
60
20
20
20
20
38
18
ENDCHAR
STARTCHAR bar
ENCODING 124
SWIDTH 368 0
DWIDTH 4 0
BBX 1 12 2 -2
BITMAP
80
80
80
80
80
80
80
80
80
80
80
80
ENDCHAR
STARTCHAR braceright
ENCODING 125
SWIDTH 476 0
DWIDTH 6 0
BBX 5 13 0 -3
BITMAP
E0
B0
30
30
10
08
10
18
08
08
08
08
30
ENDCHAR
STARTCHAR asciitilde
ENCODING 126
SWIDTH 733 0
DWIDTH 9 0
BBX 7 2 1 2
BITMAP
62
9C
ENDCHAR
STARTCHAR nonbreakingspace
ENCODING 160
SWIDTH 270 0
DWIDTH 3 0
BBX 1 1 0 0
BITMAP
00
ENDCHAR
STARTCHAR exclamdown
ENCODING 161
SWIDTH 247 0
DWIDTH 3 0
BBX 2 12 1 -1
BITMAP
C0
C0
80
80
80
80
C0
C0
C0
C0
C0
C0
ENDCHAR
STARTCHAR cent
ENCODING 162
SWIDTH 799 0
DWIDTH 10 0
BBX 6 10 2 -2
BITMAP
40
38
48
AC
A0
A0
D4
78
10
18
ENDCHAR
STARTCHAR sterling
ENCODING 163
SWIDTH 799 0
DWIDTH 10 0
BBX 6 11 2 -1
BITMAP
38
48
48
58
40
F0
60
20
34
E4
FC
ENDCHAR
STARTCHAR currency
ENCODING 164
SWIDTH 732 0
DWIDTH 9 0
BBX 7 8 1 0
BITMAP
08
F8
84
84
8C
78
86
80
ENDCHAR
STARTCHAR yen
ENCODING 165
SWIDTH 799 0
DWIDTH 10 0
BBX 9 13 1 -2
BITMAP
1000
E080
7700
3200
1C00
1C00
0800
3F00
0E00
0800
0800
1E00
2000
ENDCHAR
STARTCHAR brokenbar
ENCODING 166
SWIDTH 341 0
DWIDTH 4 0
BBX 1 14 2 -3
BITMAP
80
80
80
80
80
00
00
80
80
80
80
80
80
80
ENDCHAR
STARTCHAR section
ENCODING 167
SWIDTH 546 0
DWIDTH 7 0
BBX 5 14 1 -4
BITMAP
38
48
48
60
70
98
88
C8
78
10
08
08
68
70
ENDCHAR
STARTCHAR dieresis
ENCODING 168
SWIDTH 393 0
DWIDTH 5 0
BBX 3 1 1 8
BITMAP
A0
ENDCHAR
STARTCHAR copyright
ENCODING 169
SWIDTH 1023 0
DWIDTH 12 0
BBX 11 11 1 -2
BITMAP
1F00
20C0
4240
8E20
9220
9220
9A20
8E20
4040
6080
1F00
ENDCHAR
STARTCHAR ordfeminine
ENCODING 170
SWIDTH 558 0
DWIDTH 7 0
BBX 5 6 1 4
BITMAP
E0
A0
90
70
98
F8
ENDCHAR
STARTCHAR guillemotleft
ENCODING 171
SWIDTH 608 0
DWIDTH 7 0
BBX 6 11 1 -3
BITMAP
08
08
38
28
48
D8
C8
64
24
14
10
ENDCHAR
STARTCHAR logicalnot
ENCODING 172
SWIDTH 616 0
DWIDTH 7 0
BBX 7 3 0 3
BITMAP
FE
02
02
ENDCHAR
STARTCHAR uni00AD
ENCODING 173
SWIDTH 436 0
DWIDTH 5 0
BBX 4 1 1 2
BITMAP
F0
ENDCHAR
STARTCHAR registered
ENCODING 174
SWIDTH 1048 0
DWIDTH 13 0
BBX 11 11 1 -3
BITMAP
1F00
20C0
5F40
8920
8920
8E20
8AA0
9DA0
4040
60C0
1F00
ENDCHAR
STARTCHAR macron
ENCODING 175
SWIDTH 382 0
DWIDTH 5 0
BBX 3 1 1 9
BITMAP
E0
ENDCHAR
STARTCHAR degree
ENCODING 176
SWIDTH 346 0
DWIDTH 4 0
BBX 3 3 1 9
BITMAP
C0
A0
C0
ENDCHAR
STARTCHAR plusminus
ENCODING 177
SWIDTH 580 0
DWIDTH 7 0
BBX 7 5 0 2
BITMAP
10
10
FE
10
F8
ENDCHAR
STARTCHAR twosuperior
ENCODING 178
SWIDTH 365 0
DWIDTH 4 0
BBX 4 7 0 4
BITMAP
30
D0
10
20
40
F0
20
ENDCHAR
STARTCHAR threesuperior
ENCODING 179
SWIDTH 371 0
DWIDTH 4 0
BBX 4 6 0 4
BITMAP
E0
C0
30
90
90
60
ENDCHAR
STARTCHAR acute
ENCODING 180
SWIDTH 234 0
DWIDTH 3 0
BBX 2 2 1 9
BITMAP
40
80
ENDCHAR
STARTCHAR mu
ENCODING 181
SWIDTH 634 0
DWIDTH 8 0
BBX 7 10 1 -4
BITMAP
80
88
88
8A
CA
BE
80
80
80
C0
ENDCHAR
STARTCHAR paragraph
ENCODING 182
SWIDTH 707 0
DWIDTH 8 0
BBX 9 14 0 -4
BITMAP
0180
3E00
7200
F200
7200
3200
1200
1200
1200
1200
1200
1380
1000
6000
ENDCHAR
STARTCHAR periodcentered
ENCODING 183
SWIDTH 238 0
DWIDTH 3 0
BBX 2 2 1 4
BITMAP
C0
C0
ENDCHAR
STARTCHAR cedilla
ENCODING 184
SWIDTH 332 0
DWIDTH 4 0
BBX 3 4 0 -3
BITMAP
40
60
20
E0
ENDCHAR
STARTCHAR onesuperior
ENCODING 185
SWIDTH 336 0
DWIDTH 4 0
BBX 4 5 0 6
BITMAP
20
E0
20
E0
70
ENDCHAR
STARTCHAR ordmasculine
ENCODING 186
SWIDTH 503 0
DWIDTH 6 0
BBX 5 5 0 4
BITMAP
70
88
88
88
70
ENDCHAR
STARTCHAR guillemotright
ENCODING 187
SWIDTH 778 0
DWIDTH 9 0
BBX 8 11 1 -3
BITMAP
20
90
88
C4
73
3E
2C
48
90
90
20
ENDCHAR
STARTCHAR onequarter
ENCODING 188
SWIDTH 876 0
DWIDTH 11 0
BBX 11 11 0 0
BITMAP
2080
E100
2200
E200
7500
0900
1280
14C0
23C0
4480
41E0
ENDCHAR
STARTCHAR onehalf
ENCODING 189
SWIDTH 762 0
DWIDTH 9 0
BBX 9 12 0 -1
BITMAP
2080
E100
2200
E200
7400
0B00
1480
1080
2100
4600
4380
0100
ENDCHAR
STARTCHAR threequarters
ENCODING 190
SWIDTH 922 0
DWIDTH 11 0
BBX 11 11 0 0
BITMAP
00C0
E080
C100
3200
9280
9480
6980
12C0
13E0
20C0
41E0
ENDCHAR
STARTCHAR questiondown
ENCODING 191
SWIDTH 571 0
DWIDTH 7 0
BBX 6 11 0 -2
BITMAP
30
30
00
10
10
20
7C
DC
C4
C4
78
ENDCHAR
STARTCHAR Agrave
ENCODING 192
SWIDTH 784 0
DWIDTH 9 0
BBX 10 13 0 -1
BITMAP
2000
1000
0000
3800
0C00
1400
1400
2600
3E00
2700
E300
2100
07C0
ENDCHAR
STARTCHAR Aacute
ENCODING 193
SWIDTH 784 0
DWIDTH 9 0
BBX 10 13 0 -1
BITMAP
0400
0800
0000
3800
0C00
1400
1400
2600
3E00
2700
E300
2100
07C0
ENDCHAR
STARTCHAR Acircumflex
ENCODING 194
SWIDTH 784 0
DWIDTH 9 0
BBX 10 13 0 -1
BITMAP
0800
1600
2000
3800
0C00
1400
1400
2600
3E00
2700
E300
2100
07C0
ENDCHAR
STARTCHAR Atilde
ENCODING 195
SWIDTH 784 0
DWIDTH 9 0
BBX 10 13 0 -1
BITMAP
1000
2C00
0000
3800
0C00
1400
1400
2600
3E00
2700
E300
2100
07C0
ENDCHAR
STARTCHAR Adieresis
ENCODING 196
SWIDTH 784 0
DWIDTH 9 0
BBX 10 13 0 -1
BITMAP
1000
1400
0000
3800
0C00
1400
1400
2600
3E00
2700
E300
2100
07C0
ENDCHAR
STARTCHAR Aring
ENCODING 197
SWIDTH 784 0
DWIDTH 9 0
BBX 10 14 0 -1
BITMAP
0C00
1200
0C00
0000
3800
0C00
1400
1400
2600
3E00
2700
E300
2100
07C0
ENDCHAR
STARTCHAR AE
ENCODING 198
SWIDTH 1172 0
DWIDTH 14 0
BBX 14 12 0 -2
BITMAP
0070
0790
0320
03A0
05A0
05E0
09A4
0F84
08CC
10F0
2100
F200
ENDCHAR
STARTCHAR Ccedilla
ENCODING 199
SWIDTH 742 0
DWIDTH 9 0
BBX 9 16 0 -5
BITMAP
0100
0100
3F00
6100
C100
C000
C000
C080
C080
E100
7100
3E00
0800
0400
0400
0C00
ENDCHAR
STARTCHAR Egrave
ENCODING 200
SWIDTH 557 0
DWIDTH 7 0
BBX 6 13 1 -1
BITMAP
C0
40
18
E8
40
40
50
70
50
50
44
64
FC
ENDCHAR
STARTCHAR Eacute
ENCODING 201
SWIDTH 557 0
DWIDTH 7 0
BBX 6 13 1 -1
BITMAP
18
20
18
E8
40
40
50
70
50
50
44
64
FC
ENDCHAR
STARTCHAR Ecircumflex
ENCODING 202
SWIDTH 557 0
DWIDTH 7 0
BBX 6 14 1 -1
BITMAP
20
D8
00
18
E8
40
40
50
70
50
50
44
64
FC
ENDCHAR
STARTCHAR Edieresis
ENCODING 203
SWIDTH 557 0
DWIDTH 7 0
BBX 6 13 1 -1
BITMAP
40
50
18
E8
40
40
50
70
50
50
44
64
FC
ENDCHAR
STARTCHAR Igrave
ENCODING 204
SWIDTH 438 0
DWIDTH 5 0
BBX 6 15 0 -2
BITMAP
60
20
00
FC
30
30
20
20
20
20
20
20
20
70
80
ENDCHAR
STARTCHAR Iacute
ENCODING 205
SWIDTH 438 0
DWIDTH 5 0
BBX 6 15 0 -2
BITMAP
08
10
00
FC
30
30
20
20
20
20
20
20
20
70
80
ENDCHAR
STARTCHAR Icircumflex
ENCODING 206
SWIDTH 438 0
DWIDTH 5 0
BBX 6 15 0 -2
BITMAP
30
48
00
FC
30
30
20
20
20
20
20
20
20
70
80
ENDCHAR
STARTCHAR Idieresis
ENCODING 207
SWIDTH 438 0
DWIDTH 5 0
BBX 6 15 0 -2
BITMAP
40
50
00
FC
30
30
20
20
20
20
20
20
20
70
80
ENDCHAR
STARTCHAR Eth
ENCODING 208
SWIDTH 730 0
DWIDTH 9 0
BBX 9 9 0 -2
BITMAP
7E00
2300
2180
2180
F980
2180
2300
7C00
C000
ENDCHAR
STARTCHAR Ntilde
ENCODING 209
SWIDTH 799 0
DWIDTH 10 0
BBX 10 15 0 -3
BITMAP
0C00
1700
0000
0000
F3C0
3880
5D00
4F00
4700
4300
4100
4100
4000
2000
F000
ENDCHAR
STARTCHAR Ograve
ENCODING 210
SWIDTH 747 0
DWIDTH 9 0
BBX 9 12 0 0
BITMAP
3000
1000
0800
3C00
6300
C100
C180
8180
C180
C100
6300
3E00
ENDCHAR
STARTCHAR Oacute
ENCODING 211
SWIDTH 747 0
DWIDTH 9 0
BBX 9 12 0 0
BITMAP
0400
0800
0000
3C00
6300
C100
C180
8180
C180
C100
6300
3E00
ENDCHAR
STARTCHAR Ocircumflex
ENCODING 212
SWIDTH 747 0
DWIDTH 9 0
BBX 9 12 0 0
BITMAP
0800
3400
0000
3C00
6300
C100
C180
8180
C180
C100
6300
3E00
ENDCHAR
STARTCHAR Otilde
ENCODING 213
SWIDTH 747 0
DWIDTH 9 0
BBX 9 12 0 0
BITMAP
1800
2C00
0000
3C00
6300
C100
C180
8180
C180
C100
6300
3E00
ENDCHAR
STARTCHAR Odieresis
ENCODING 214
SWIDTH 747 0
DWIDTH 9 0
BBX 9 12 0 0
BITMAP
1000
1400
0000
3C00
6300
C100
C180
8180
C180
C100
6300
3E00
ENDCHAR
STARTCHAR multiply
ENCODING 215
SWIDTH 541 0
DWIDTH 7 0
BBX 5 7 1 0
BITMAP
08
90
60
20
50
80
80
ENDCHAR
STARTCHAR Oslash
ENCODING 216
SWIDTH 747 0
DWIDTH 9 0
BBX 9 11 0 -1
BITMAP
0100
3E00
4300
C300
C580
8980
D180
E100
6300
7E00
8000
ENDCHAR
STARTCHAR Ugrave
ENCODING 217
SWIDTH 690 0
DWIDTH 8 0
BBX 10 12 0 1
BITMAP
0800
0800
0400
1C00
F000
37C0
3100
3100
3100
3100
1200
0E00
ENDCHAR
STARTCHAR Uacute
ENCODING 218
SWIDTH 690 0
DWIDTH 8 0
BBX 10 10 0 1
BITMAP
0100
1E00
F000
37C0
3100
3100
3100
3100
1200
0E00
ENDCHAR
STARTCHAR Ucircumflex
ENCODING 219
SWIDTH 690 0
DWIDTH 8 0
BBX 10 11 0 1
BITMAP
0C00
1200
1C00
F000
37C0
3100
3100
3100
3100
1200
0E00
ENDCHAR
STARTCHAR Udieresis
ENCODING 220
SWIDTH 690 0
DWIDTH 8 0
BBX 10 11 0 1
BITMAP
0800
0A00
1C00
F000
37C0
3100
3100
3100
3100
1200
0E00
ENDCHAR
STARTCHAR Yacute
ENCODING 221
SWIDTH 796 0
DWIDTH 10 0
BBX 11 14 0 -2
BITMAP
0100
0A00
F0E0
3080
1900
0E00
0400
0400
0400
0400
0400
0600
1E00
0300
ENDCHAR
STARTCHAR Thorn
ENCODING 222
SWIDTH 479 0
DWIDTH 6 0
BBX 6 12 0 -1
BITMAP
E0
40
78
4C
4C
78
40
40
40
40
40
E0
ENDCHAR
STARTCHAR germandbls
ENCODING 223
SWIDTH 591 0
DWIDTH 7 0
BBX 7 13 0 -1
BITMAP
70
90
90
90
A0
B8
8C
46
42
42
72
7C
80
ENDCHAR
STARTCHAR agrave
ENCODING 224
SWIDTH 527 0
DWIDTH 6 0
BBX 7 11 0 -1
BITMAP
40
20
70
90
58
18
78
88
88
FA
0C
ENDCHAR
STARTCHAR aacute
ENCODING 225
SWIDTH 527 0
DWIDTH 6 0
BBX 7 12 0 -1
BITMAP
08
10
00
70
90
58
18
78
88
88
FA
0C
ENDCHAR
STARTCHAR acircumflex
ENCODING 226
SWIDTH 527 0
DWIDTH 6 0
BBX 7 12 0 -1
BITMAP
30
48
00
70
90
58
18
78
88
88
FA
0C
ENDCHAR
STARTCHAR atilde
ENCODING 227
SWIDTH 527 0
DWIDTH 6 0
BBX 7 11 0 -1
BITMAP
20
D8
70
90
58
18
78
88
88
FA
0C
ENDCHAR
STARTCHAR adieresis
ENCODING 228
SWIDTH 527 0
DWIDTH 6 0
BBX 7 11 0 -1
BITMAP
50
00
70
90
58
18
78
88
88
FA
0C
ENDCHAR
STARTCHAR aring
ENCODING 229
SWIDTH 527 0
DWIDTH 6 0
BBX 7 12 0 -1
BITMAP
38
48
38
70
90
58
18
78
88
88
FA
0C
ENDCHAR
STARTCHAR ae
ENCODING 230
SWIDTH 700 0
DWIDTH 8 0
BBX 8 8 0 -1
BITMAP
06
79
B3
DE
71
91
99
EE
ENDCHAR
STARTCHAR ccedilla
ENCODING 231
SWIDTH 437 0
DWIDTH 5 0
BBX 5 11 0 -3
BITMAP
70
98
80
88
88
C8
70
20
10
50
30
ENDCHAR
STARTCHAR egrave
ENCODING 232
SWIDTH 434 0
DWIDTH 5 0
BBX 5 10 0 0
BITMAP
40
20
00
70
48
88
F0
C8
C8
70
ENDCHAR
STARTCHAR eacute
ENCODING 233
SWIDTH 434 0
DWIDTH 5 0
BBX 5 10 0 0
BITMAP
08
10
00
70
48
88
F0
C8
C8
70
ENDCHAR
STARTCHAR ecircumflex
ENCODING 234
SWIDTH 434 0
DWIDTH 5 0
BBX 5 10 0 0
BITMAP
30
58
00
70
48
88
F0
C8
C8
70
ENDCHAR
STARTCHAR edieresis
ENCODING 235
SWIDTH 434 0
DWIDTH 5 0
BBX 5 9 0 0
BITMAP
50
00
70
48
88
F0
C8
C8
70
ENDCHAR
STARTCHAR igrave
ENCODING 236
SWIDTH 301 0
DWIDTH 4 0
BBX 3 9 0 1
BITMAP
80
40
00
E0
40
40
40
40
E0
ENDCHAR
STARTCHAR iacute
ENCODING 237
SWIDTH 301 0
DWIDTH 4 0
BBX 4 9 0 1
BITMAP
10
20
00
E0
40
40
40
40
E0
ENDCHAR
STARTCHAR icircumflex
ENCODING 238
SWIDTH 301 0
DWIDTH 4 0
BBX 4 9 0 1
BITMAP
60
B0
00
E0
40
40
40
40
E0
ENDCHAR
STARTCHAR idieresis
ENCODING 239
SWIDTH 301 0
DWIDTH 4 0
BBX 3 8 0 1
BITMAP
A0
00
E0
40
40
40
40
E0
ENDCHAR
STARTCHAR eth
ENCODING 240
SWIDTH 476 0
DWIDTH 6 0
BBX 7 10 -1 -1
BITMAP
08
38
D4
24
02
1E
22
22
32
1C
ENDCHAR
STARTCHAR ntilde
ENCODING 241
SWIDTH 584 0
DWIDTH 7 0
BBX 7 11 0 -1
BITMAP
18
2C
00
40
5C
E4
64
44
24
6C
06
ENDCHAR
STARTCHAR ograve
ENCODING 242
SWIDTH 400 0
DWIDTH 5 0
BBX 8 9 0 2
BITMAP
03
41
22
02
04
78
90
90
70
ENDCHAR
STARTCHAR oacute
ENCODING 243
SWIDTH 400 0
DWIDTH 5 0
BBX 8 9 0 2
BITMAP
03
01
0A
12
04
78
90
90
70
ENDCHAR
STARTCHAR ocircumflex
ENCODING 244
SWIDTH 400 0
DWIDTH 5 0
BBX 8 9 0 2
BITMAP
03
01
32
5A
84
78
90
90
70
ENDCHAR
STARTCHAR otilde
ENCODING 245
SWIDTH 400 0
DWIDTH 5 0
BBX 8 9 0 2
BITMAP
03
01
62
9A
04
78
90
90
70
ENDCHAR
STARTCHAR odieresis
ENCODING 246
SWIDTH 400 0
DWIDTH 5 0
BBX 8 9 0 2
BITMAP
03
01
52
02
04
78
90
90
70
ENDCHAR
STARTCHAR divide
ENCODING 247
SWIDTH 592 0
DWIDTH 7 0
BBX 6 5 1 1
BITMAP
20
00
FC
00
20
ENDCHAR
STARTCHAR oslash
ENCODING 248
SWIDTH 396 0
DWIDTH 5 0
BBX 4 7 0 0
BITMAP
20
70
D0
D0
60
80
80
ENDCHAR
STARTCHAR ugrave
ENCODING 249
SWIDTH 744 0
DWIDTH 9 0
BBX 9 9 0 0
BITMAP
1000
0800
0000
2600
E200
2200
2300
3580
1C00
ENDCHAR
STARTCHAR uacute
ENCODING 250
SWIDTH 744 0
DWIDTH 9 0
BBX 9 9 0 0
BITMAP
0400
0800
0000
2600
E200
2200
2300
3580
1C00
ENDCHAR
STARTCHAR ucircumflex
ENCODING 251
SWIDTH 744 0
DWIDTH 9 0
BBX 9 9 0 0
BITMAP
1800
2C00
0000
2600
E200
2200
2300
3580
1C00
ENDCHAR
STARTCHAR udieresis
ENCODING 252
SWIDTH 744 0
DWIDTH 9 0
BBX 9 9 0 0
BITMAP
1400
0000
0000
2600
E200
2200
2300
3580
1C00
ENDCHAR
STARTCHAR yacute
ENCODING 253
SWIDTH 659 0
DWIDTH 8 0
BBX 8 14 0 -5
BITMAP
02
04
30
E7
62
62
22
26
1A
02
04
34
44
38
ENDCHAR
STARTCHAR thorn
ENCODING 254
SWIDTH 514 0
DWIDTH 6 0
BBX 7 18 -1 -8
BITMAP
20
E0
20
20
20
3C
26
26
26
26
3C
20
20
20
20
30
30
78
ENDCHAR
STARTCHAR ydieresis
ENCODING 255
SWIDTH 659 0
DWIDTH 8 0
BBX 8 14 0 -5
BITMAP
14
00
30
E7
62
62
22
26
1A
02
04
34
44
38
ENDCHAR
STARTCHAR dotlessi
ENCODING 305
SWIDTH 301 0
DWIDTH 4 0
BBX 3 6 0 1
BITMAP
E0
40
40
40
40
E0
ENDCHAR
STARTCHAR OE
ENCODING 338
SWIDTH 1132 0
DWIDTH 14 0
BBX 14 12 0 -2
BITMAP
0010
3FF0
6388
C180
C090
C090
C0F0
E0D0
71C4
3EC4
00FC
0300
ENDCHAR
STARTCHAR oe
ENCODING 339
SWIDTH 798 0
DWIDTH 10 0
BBX 9 5 0 1
BITMAP
7300
9C80
8F80
CC80
7780
ENDCHAR
STARTCHAR circumflex
ENCODING 710
SWIDTH 483 0
DWIDTH 6 0
BBX 4 2 1 8
BITMAP
60
90
ENDCHAR
STARTCHAR caron
ENCODING 711
SWIDTH 428 0
DWIDTH 5 0
BBX 4 3 1 8
BITMAP
B0
40
40
ENDCHAR
STARTCHAR ring
ENCODING 730
SWIDTH 330 0
DWIDTH 4 0
BBX 3 3 1 10
BITMAP
E0
A0
E0
ENDCHAR
STARTCHAR tilde
ENCODING 732
SWIDTH 433 0
DWIDTH 5 0
BBX 4 2 1 9
BITMAP
C0
F0
ENDCHAR
STARTCHAR mu.dup1
ENCODING 956
SWIDTH 634 0
DWIDTH 8 0
BBX 7 10 1 -4
BITMAP
80
88
88
8A
CA
BE
80
80
80
C0
ENDCHAR
STARTCHAR endash
ENCODING 8211
SWIDTH 436 0
DWIDTH 5 0
BBX 4 1 1 2
BITMAP
F0
ENDCHAR
STARTCHAR emdash
ENCODING 8212
SWIDTH 651 0
DWIDTH 8 0
BBX 6 1 1 3
BITMAP
FC
ENDCHAR
STARTCHAR quoteleft
ENCODING 8216
SWIDTH 287 0
DWIDTH 3 0
BBX 2 4 1 6
BITMAP
40
80
C0
C0
ENDCHAR
STARTCHAR quoteright
ENCODING 8217
SWIDTH 291 0
DWIDTH 4 0
BBX 2 4 1 6
BITMAP
C0
C0
40
80
ENDCHAR
STARTCHAR quotesinglbase
ENCODING 8218
SWIDTH 272 0
DWIDTH 3 0
BBX 2 4 1 -2
BITMAP
C0
C0
40
80
ENDCHAR
STARTCHAR quotedblleft
ENCODING 8220
SWIDTH 445 0
DWIDTH 5 0
BBX 4 4 1 6
BITMAP
70
A0
F0
C0
ENDCHAR
STARTCHAR quotedblright
ENCODING 8221
SWIDTH 444 0
DWIDTH 5 0
BBX 4 4 1 6
BITMAP
F0
F0
50
E0
ENDCHAR
STARTCHAR quotedblbase
ENCODING 8222
SWIDTH 482 0
DWIDTH 6 0
BBX 5 4 1 -3
BITMAP
D8
D8
48
90
ENDCHAR
STARTCHAR bullet
ENCODING 8226
SWIDTH 351 0
DWIDTH 4 0
BBX 3 3 1 3
BITMAP
E0
E0
E0
ENDCHAR
STARTCHAR guilsinglleft
ENCODING 8249
SWIDTH 465 0
DWIDTH 6 0
BBX 4 8 1 -1
BITMAP
20
20
40
40
C0
60
20
10
ENDCHAR
STARTCHAR guilsinglright
ENCODING 8250
SWIDTH 449 0
DWIDTH 5 0
BBX 4 7 1 -1
BITMAP
80
40
60
70
40
80
80
ENDCHAR
STARTCHAR fraction
ENCODING 8260
SWIDTH 406 0
DWIDTH 5 0
BBX 8 11 -2 0
BITMAP
01
02
02
04
08
08
10
20
40
40
80
ENDCHAR
STARTCHAR foursuperior
ENCODING 8308
SWIDTH 473 0
DWIDTH 6 0
BBX 5 7 1 4
BITMAP
40
20
E0
B0
F0
20
78
ENDCHAR
STARTCHAR Euro
ENCODING 8364
SWIDTH 799 0
DWIDTH 10 0
BBX 11 11 -1 -1
BITMAP
0020
07C0
18C0
1840
3040
3E00
7C00
7080
B080
1900
0F00
ENDCHAR
STARTCHAR minus
ENCODING 8722
SWIDTH 436 0
DWIDTH 5 0
BBX 4 1 1 2
BITMAP
F0
ENDCHAR
STARTCHAR f_f
ENCODING 64256
SWIDTH 467 0
DWIDTH 6 0
BBX 7 18 0 -4
BITMAP
38
58
4E
52
56
50
50
7C
D0
50
50
48
48
6C
70
20
60
F8
ENDCHAR
STARTCHAR .notdef
ENCODING -1
SWIDTH 270 0
DWIDTH 3 0
BBX 3 7 0 0
BITMAP
E0
A0
A0
A0
A0
A0
E0
ENDCHAR
STARTCHAR .null
ENCODING -1
SWIDTH 0 0
DWIDTH 0 0
BBX 1 1 0 0
BITMAP
00
ENDCHAR
STARTCHAR nonmarkingreturn
ENCODING -1
SWIDTH 270 0
DWIDTH 3 0
BBX 1 1 0 0
BITMAP
00
ENDCHAR
STARTCHAR dieresis.case
ENCODING -1
SWIDTH 393 0
DWIDTH 5 0
BBX 3 2 1 9
BITMAP
80
A0
ENDCHAR
STARTCHAR o.cmp
ENCODING -1
SWIDTH 400 0
DWIDTH 5 0
BBX 8 9 0 2
BITMAP
03
01
02
02
04
78
90
90
70
ENDCHAR
STARTCHAR n_n
ENCODING -1
SWIDTH 1024 0
DWIDTH 12 0
BBX 12 8 0 -1
BITMAP
4000
DF00
65E0
6520
2520
27E0
6C10
0200
ENDCHAR
STARTCHAR a_a
ENCODING -1
SWIDTH 911 0
DWIDTH 11 0
BBX 11 8 0 0
BITMAP
0700
0480
6480
9780
9A80
7A80
97A0
FCE0
ENDCHAR
STARTCHAR t_h
ENCODING -1
SWIDTH 854 0
DWIDTH 10 0
BBX 11 16 0 -3
BITMAP
0400
1C00
0400
1400
1400
FE00
2400
2780
2440
2540
3540
1E40
0C40
1EC0
01C0
0020
ENDCHAR
STARTCHAR s_s
ENCODING -1
SWIDTH 654 0
DWIDTH 8 0
BBX 8 11 0 -2
BITMAP
09
3F
2D
25
14
8A
97
ED
39
23
1E
ENDCHAR
STARTCHAR t_t
ENCODING -1
SWIDTH 569 0
DWIDTH 7 0
BBX 7 10 0 -1
BITMAP
34
38
F0
50
50
56
5A
4C
24
1C
ENDCHAR
STARTCHAR e_e
ENCODING -1
SWIDTH 782 0
DWIDTH 9 0
BBX 9 7 0 0
BITMAP
7700
DD00
9900
E900
CE80
3C80
0380
ENDCHAR
STARTCHAR o_o
ENCODING -1
SWIDTH 751 0
DWIDTH 9 0
BBX 12 10 0 1
BITMAP
0030
0010
0020
0020
7040
CF80
8900
8900
8F00
7000
ENDCHAR
STARTCHAR l_l
ENCODING -1
SWIDTH 573 0
DWIDTH 7 0
BBX 8 12 -1 -2
BITMAP
2C
64
24
24
24
24
24
24
26
27
F8
18
ENDCHAR
STARTCHAR z_z
ENCODING -1
SWIDTH 875 0
DWIDTH 11 0
BBX 11 8 0 -1
BITMAP
1F00
0200
7A00
9400
3500
2F60
4020
FFC0
ENDCHAR
STARTCHAR j_j
ENCODING -1
SWIDTH 577 0
DWIDTH 7 0
BBX 8 17 -1 -8
BITMAP
06
06
10
0E
7E
1A
1B
09
09
09
09
C9
89
91
F1
1A
0C
ENDCHAR
STARTCHAR f_b
ENCODING -1
SWIDTH 731 0
DWIDTH 9 0
BBX 10 16 -1 -2
BITMAP
0C00
1400
2400
2E00
2E00
3E00
E200
2200
2200
23C0
2240
2240
2780
2000
3800
C000
ENDCHAR
STARTCHAR f_k
ENCODING -1
SWIDTH 708 0
DWIDTH 9 0
BBX 8 13 0 -1
BITMAP
10
7C
54
5C
50
50
D6
58
58
5A
55
D3
7C
ENDCHAR
STARTCHAR f_h
ENCODING -1
SWIDTH 873 0
DWIDTH 10 0
BBX 12 16 -1 -2
BITMAP
0E00
1200
2600
2E00
2600
3A00
6200
A200
2200
22E0
2320
2220
2230
2E40
3900
C000
ENDCHAR
ENDFONT
